HIERARCHY
ROOT Hips
{
	OFFSET -3.958830 18.904000 13.208200
	CHANNELS 6 Xposition Yposition Zposition Zrotation Yrotation Xrotation 
	JOINT LHipJoint
	{
		OFFSET 0.000000 0.000000 0.000000
		CHANNELS 3 Zrotation Yrotation Xrotation
		JOINT LeftUpLeg
		{
			OFFSET 1.800000 -1.400000 0.085000
			CHANNELS 3 Zrotation Yrotation Xrotation
			JOINT LeftLeg
			{
				OFFSET 2.215000 -6.000000 0.000000
				CHANNELS 3 Zrotation Yrotation Xrotation
				JOINT LeftFoot
				{
					OFFSET 2.500000 -6.900000 0.000000
					CHANNELS 3 Zrotation Yrotation Xrotation
					JOINT LeftToeBase
					{
						OFFSET 0.200000 -0.500000 1.950000
						CHANNELS 3 Zrotation Yrotation Xrotation
						End Site
						{
							OFFSET 0.000000 0.000000 0.000000
						}
					}
				}
			}
		}
	}
	JOINT RHipJoint
	{
		OFFSET 0.000000 0.000000 0.000000
		CHANNELS 3 Zrotation Yrotation Xrotation
		JOINT RightUpLeg
		{
			OFFSET -1.800000 -1.400000 0.085000
			CHANNELS 3 Zrotation Yrotation Xrotation
			JOINT RightLeg
			{
				OFFSET -2.215000 -6.000000 0.000000
				CHANNELS 3 Zrotation Yrotation Xrotation
				JOINT RightFoot
				{
					OFFSET -2.500000 -6.900000 0.000000
					CHANNELS 3 Zrotation Yrotation Xrotation
					JOINT RightToeBase
					{
						OFFSET -0.200000 -0.500000 1.950000
						CHANNELS 3 Zrotation Yrotation Xrotation
						End Site
						{
							OFFSET 0.000000 0.000000 0.000000
						}
					}
				}
			}
		}
	}
	JOINT LowerBack
	{
		OFFSET 0.000000 0.000000 0.000000
		CHANNELS 3 Zrotation Yrotation Xrotation
		JOINT Spine
		{
			OFFSET -0.087000 1.940000 -0.288900
			CHANNELS 3 Zrotation Yrotation Xrotation
			JOINT Spine1
			{
				OFFSET 0.000000 1.950000 0.060000
				CHANNELS 3 Zrotation Yrotation Xrotation
				JOINT Neck
				{
					OFFSET 0.000000 0.000000 0.000000
					CHANNELS 3 Zrotation Yrotation Xrotation
					JOINT Neck1
					{
						OFFSET 0.000000 1.600000 0.340000
						CHANNELS 3 Zrotation Yrotation Xrotation
						JOINT Head
						{
							OFFSET 0.000000 1.667000 -0.240000
							CHANNELS 3 Zrotation Yrotation Xrotation
							End Site
							{
								OFFSET 0.000000 0.000000 0.000000
							}
						}
					}
				}
				JOINT LeftShoulder
				{
					OFFSET 0.000000 0.000000 0.000000
					CHANNELS 3 Zrotation Yrotation Xrotation
					JOINT LeftArm
					{
						OFFSET 2.700000 1.550000 -0.730000
						CHANNELS 3 Zrotation Yrotation Xrotation
						JOINT LeftForeArm
						{
							OFFSET 5.450000 0.000000 0.000000
							CHANNELS 3 Zrotation Yrotation Xrotation
							JOINT LeftHand
							{
								OFFSET 3.450000 0.000000 0.000000
								CHANNELS 3 Zrotation Yrotation Xrotation
								JOINT LeftHandIndex1
								{
									OFFSET 0.750000 0.000000 0.000000
									CHANNELS 3 Zrotation Yrotation Xrotation
									End Site
									{
										OFFSET 0.000000 0.000000 0.000000
									}
								}
							}
						}
					}
				}
				JOINT RightShoulder
				{
					OFFSET 0.000000 0.000000 0.000000
					CHANNELS 3 Zrotation Yrotation Xrotation
					JOINT RightArm
					{
						OFFSET -2.700000 1.550000 -0.730000
						CHANNELS 3 Zrotation Yrotation Xrotation
						JOINT RightForeArm
						{
							OFFSET -5.450000 0.000000 0.000000
							CHANNELS 3 Zrotation Yrotation Xrotation
							JOINT RightHand
							{
								OFFSET -3.450000 0.000000 0.000000
								CHANNELS 3 Zrotation Yrotation Xrotation
								JOINT RightHandIndex1
								{
									OFFSET -0.750000 0.000000 0.000000
									CHANNELS 3 Zrotation Yrotation Xrotation
									End Site
									{
										OFFSET 0.000000 0.000000 0.000000
									}
								}
							}
						}
					}
				}
			}
		}
	}
}
MOTION
Frames: 7
Frame Time: 0.016667
1.007830 16.582780 -1.624840 14.749402 -59.610272 2.082323 -16.353317 9.872973 8.028728 16.423870 -10.969914 -71.772500 -7.108498 41.108761 100.132811 3.434591 21.431694 -1.536387 0.789830 0.302860 0.806730 17.845739 -7.914513 1.675027 -9.097099 3.799563 -22.528703 6.113339 -2.809681 4.791421 -0.061505 -1.945016 3.994532 0.256290 -0.018670 0.197270 -2.482725 -3.094742 -9.656367 -4.290392 2.065961 32.352777 2.233577 2.745706 -4.347568 2.197628 -7.120762 -8.354622 -12.547770 14.345851 21.802948 -13.062110 15.008840 -18.384210 -23.404354 2.833756 1.070409 -38.212637 19.893968 -8.353843 -0.844581 3.378011 -1.503800 -3.869390 2.618408 0.714220 0.100910 0.083100 0.292080 19.953829 6.317113 5.181104 30.961066 -3.680818 -6.252453 169.416424 44.601975 132.167055 1.771673 -2.181294 -0.251070 0.180760 -0.343790 -0.483440 
1.082360 16.688960 -1.609370 16.425800 -58.406237 -0.915496 -16.286579 9.931377 8.082508 14.337268 -11.868953 -75.122089 -5.906469 37.336567 98.429709 3.164528 20.656375 -1.429216 0.761620 0.256200 0.796220 17.915122 -8.115428 1.482260 -9.549476 3.374568 -19.548646 7.189346 -3.630538 7.594276 -0.106297 -2.281269 3.883791 0.221800 -0.023140 0.222380 -2.380967 -3.005922 -9.592840 -4.711673 4.140404 35.062590 2.238852 4.490824 -3.572434 2.547925 -6.484329 -8.673769 -11.238712 12.711915 22.231299 -14.490990 14.428510 -19.928480 -24.585403 1.547031 1.595142 -36.323207 21.072952 -8.029806 0.873119 1.770352 -1.321076 -3.853313 2.621279 0.742910 0.100240 0.091650 0.278190 20.261116 7.980523 5.634060 29.474902 -2.535972 -6.382708 172.404227 44.904843 139.382280 1.752775 -2.125332 -0.254380 0.170240 -0.317390 -0.495860 
1.147340 16.752380 -1.602780 19.865643 -58.004742 -4.659545 -16.230948 10.066600 7.984013 10.003104 -13.610305 -78.609293 -1.505416 31.743964 99.001063 2.814449 19.781039 -1.315774 0.745550 0.220610 0.805130 17.985403 -8.259990 1.321302 -9.530615 2.907507 -17.609567 6.363474 -3.887853 9.006267 -0.113278 -2.450320 3.811453 0.225320 -0.018670 0.246360 -2.154159 -3.052792 -9.462763 -6.812293 7.316693 35.556062 3.463247 6.329015 -2.230764 2.368990 -5.901693 -8.493368 -10.056576 11.309315 22.212276 -15.593310 13.682740 -20.810840 -24.676186 1.300151 1.873159 -33.579437 21.490544 -7.320203 0.137184 1.309036 -1.491469 -3.877597 2.616576 0.761600 0.122180 0.078670 0.246760 20.551455 8.806903 5.491498 27.174439 -0.449482 -5.956837 174.967012 45.664499 146.950429 1.693445 -2.095118 -0.278210 0.166660 -0.280420 -0.526430 
1.228520 16.795480 -1.584450 21.160117 -57.703772 -6.897913 -16.164089 10.171652 7.885340 4.591259 -15.789702 -81.036875 3.489946 23.525168 96.670856 2.245924 18.087720 -1.016788 0.784050 0.264880 0.849910 18.047873 -8.479262 1.250504 -8.818841 2.722630 -15.720977 6.648160 -4.466244 12.022467 -0.152891 -2.755686 3.696175 0.288080 -0.015670 0.235680 -2.150651 -2.881770 -9.307834 -6.408688 9.348789 36.524699 3.273592 8.130113 -1.030358 2.170409 -5.440307 -7.965238 -9.006377 10.131922 21.738771 -15.544730 12.899080 -21.662720 -25.725824 1.131003 1.884494 -28.365255 21.383495 -5.862280 -2.079434 0.086652 -1.764381 -3.837442 2.618291 0.769410 0.137560 0.073390 0.244340 21.635312 9.391210 4.977059 23.873913 1.139672 -6.160867 175.343145 48.649010 150.950481 1.620290 -2.069730 -0.310630 0.202450 -0.292030 -0.549560 
1.303770 16.844590 -1.565420 19.943496 -58.320367 -8.700809 -16.035625 10.499178 7.576882 -1.297492 -15.658517 -78.656859 8.557794 14.502861 89.208824 1.551123 15.761822 -0.533101 0.785010 0.255820 0.896540 18.111973 -8.829751 1.301048 -6.387674 2.302966 -12.094310 5.871891 -4.884987 15.122720 -0.224681 -3.132822 3.571367 0.300470 -0.044470 0.228680 -2.238384 -2.664289 -9.107840 -3.479954 10.969317 39.729988 2.108089 11.024618 0.102681 2.570086 -4.884491 -7.755157 -7.814672 7.678363 22.056982 -17.335410 11.672340 -22.899810 -27.939255 0.030787 1.742839 -22.200131 19.929088 -3.645799 -2.206269 0.870860 -1.724965 -3.809235 2.598875 0.781840 0.137690 0.076490 0.211720 22.450866 10.958041 5.193535 19.629344 1.742418 -7.009585 -179.699531 49.701501 162.501905 1.585772 -2.062443 -0.329830 0.210840 -0.287920 -0.582180 
1.361350 16.852220 -1.543390 19.206472 -58.197009 -10.269584 -15.956426 10.746317 7.342087 -6.285304 -15.822358 -77.026468 13.317916 7.571897 81.572636 1.069168 13.921086 -0.067517 0.734960 0.179650 0.888160 18.150254 -9.022537 1.388912 -4.141037 1.701609 -8.638231 4.859731 -5.075870 17.000054 -0.281769 -3.446314 3.499516 0.260140 -0.046620 0.200800 -2.235271 -2.641235 -8.981765 -1.940199 12.223729 42.157618 1.892349 13.019372 0.952668 2.879771 -4.224039 -8.229249 -6.631188 6.023002 22.568099 -17.973980 11.165400 -23.188860 -28.340433 -1.489405 2.195638 -19.005908 19.133941 -2.702097 -2.626264 1.424566 -1.748098 -3.785223 2.569913 0.806120 0.130200 0.055120 0.186050 22.041873 12.663377 5.911362 18.436128 1.080950 -8.592316 -176.795525 52.535881 168.695632 1.577660 -2.013093 -0.365820 0.218030 -0.266530 -0.606810 
1.401400 16.810390 -1.497150 20.615905 -57.584607 -13.055755 -15.847211 11.100660 6.924013 -12.238301 -15.269916 -72.748896 16.015864 3.626082 69.575640 0.479484 11.711793 0.523521 0.762220 0.178950 0.955700 18.167584 -9.225683 1.563325 -3.935383 1.116898 -5.190766 5.578314 -5.466127 16.668797 -0.376517 -3.764987 3.367964 0.282780 -0.089920 0.203390 -2.155960 -2.778259 -8.783559 -1.702957 13.500541 42.381945 2.396165 14.305125 2.450697 2.690116 -3.794758 -7.833615 -6.062786 4.901661 23.804323 -18.793410 10.354460 -24.405850 -28.833046 -2.498140 2.337368 -14.149472 16.486626 -0.889472 -4.104842 11.144039 -2.555811 -3.857645 2.453969 0.855790 0.108940 0.074390 0.155130 22.551857 13.708786 5.498846 15.857497 2.071573 -9.767153 -175.885126 57.600074 172.041335 1.544543 -1.986633 -0.389390 0.221060 -0.267780 -0.650920 
